<?xml version="1.0" encoding="iso-8859-1"?>
<!-- Uploaded to: SVG Repo, www.svgrepo.com, Generator: SVG Repo Mixer Tools -->
<svg fill="#000000" height="800px" width="800px" version="1.1" id="Layer_1" xmlns="http://www.w3.org/2000/svg" xmlns:xlink="http://www.w3.org/1999/xlink" 
	 viewBox="0 0 512 512" xml:space="preserve">
<g>
	<g>
		<path d="M354.511,315.445c-0.782-2.48-2.173-4.76-4.024-6.594c-1.844-1.828-4.13-3.201-6.612-3.969
			c-11.703-3.628-24.065-3.73-35.752-0.294c-4.152,1.22-6.53,5.576-5.309,9.728c1.22,4.152,5.575,6.524,9.729,5.309
			c8.717-2.562,17.946-2.484,26.692,0.228c0.084,0.026,0.157,0.069,0.216,0.128c0.052,0.052,0.09,0.112,0.111,0.178
			c5.081,16.104,0.768,33.513-11.258,45.432c-9.856,9.77-23.43,14.408-36.964,13.018l18.745-18.581
			c3.074-3.047,3.096-8.009,0.049-11.083c-3.048-3.074-8.01-3.095-11.082-0.049l-18.901,18.736
			c-1.421-13.395,3.244-26.839,13.094-36.602c3.074-3.047,3.096-8.008,0.049-11.082c-3.048-3.074-8.009-3.095-11.083-0.049
			c-16.107,15.966-21.944,39.246-15.297,60.856l-3.077,3.05V254.387c18.087-2.32,32.759-15.576,37.078-32.849
			c27.058-10.871,46.201-37.2,46.201-67.897V60.369c0-7.277-5.941-13.197-13.244-13.197c-1.444,0-2.86,0.399-4.091,1.153
			l-4.296,2.629V32.641c0-6.47-5.28-11.735-11.77-11.735c-1.444,0-2.86,0.399-4.091,1.153l-16.877,10.33
			C285.466,12.872,271.886,0,255.999,0c-4.857,0-9.606,1.21-14.115,3.594c-3.826,2.024-5.286,6.767-3.262,10.592
			c2.025,3.825,6.766,5.284,10.592,3.262c2.227-1.178,4.509-1.775,6.784-1.775c9.49,0,18.196,10.364,22.964,25.151L255.999,54.88
			l-23.032-14.098c0.802-2.519,1.722-4.929,2.768-7.187c1.819-3.927,0.11-8.586-3.817-10.405c-3.928-1.822-8.586-0.111-10.405,3.817
			c-0.809,1.746-1.546,3.552-2.235,5.397l-16.905-10.347c-1.231-0.753-2.647-1.153-4.091-1.153c-6.49,0-11.77,5.264-11.77,11.735
			v18.313l-4.296-2.629c-1.231-0.753-2.647-1.153-4.091-1.153c-7.303,0-13.245,5.92-13.245,13.197v93.271
			c0,30.697,19.144,57.026,46.201,67.897c4.32,17.272,18.991,30.529,37.078,32.85v76.694l-3.077-3.051
			c6.647-21.608,0.81-44.888-15.297-60.855c-11.587-11.486-26.957-17.81-43.28-17.81c-6.223,0-12.409,0.939-18.383,2.791
			c-2.483,0.769-4.77,2.142-6.614,3.97c-1.851,1.834-3.242,4.115-4.023,6.592c-6.856,21.728-1.043,45.21,15.171,61.281
			c11.586,11.484,26.956,17.81,43.28,17.81c6.111,0,12.184-0.911,18.061-2.699l14.164,14.039v151.014
			c0,4.328,3.509,7.837,7.837,7.837c4.328,0,7.837-3.509,7.837-7.837v-98.287l14.164-14.039c5.958,1.811,12.039,2.7,18.065,2.7
			c15.994-0.001,31.582-6.221,43.275-17.812C355.554,360.652,361.366,337.171,354.511,315.445z M231.847,314.909l-18.901-18.736
			c-3.073-3.047-8.035-3.025-11.083,0.049c-3.047,3.073-3.025,8.035,0.049,11.082l18.747,18.582
			c-1.567,0.161-3.142,0.249-4.721,0.249c-12.163,0-23.615-4.713-32.246-13.268c-12.026-11.92-16.339-29.329-11.258-45.434
			c0.021-0.065,0.057-0.124,0.11-0.177c0.06-0.06,0.133-0.102,0.218-0.13c4.471-1.387,9.096-2.089,13.744-2.089
			c12.162,0,23.614,4.712,32.246,13.269C228.603,288.071,233.269,301.516,231.847,314.909z M202.188,40.321l38.799,23.747
			l-16.523,10.114l-22.276-13.634V40.321z M180.556,65.683l60.431,36.986l-60.431,36.986V65.683z M180.716,157.934l102.361-62.65
			c3.692-2.259,4.853-7.083,2.593-10.775c-2.259-3.693-7.082-4.853-10.775-2.593l-18.897,11.566l-16.523-10.113l70.335-43.049
			v20.226l-10.883,6.661c-3.692,2.26-4.853,7.083-2.593,10.776c2.259,3.691,7.082,4.852,10.776,2.592l24.331-14.892v87.956
			c0,31.739-26.081,57.559-58.138,57.559h-34.609C208.095,211.2,182.941,187.676,180.716,157.934z M258.163,239.075h-4.326
			c-9.928,0-18.677-5.065-23.754-12.716c2.827,0.327,5.697,0.515,8.611,0.515h34.609c2.914,0,5.785-0.187,8.612-0.515
			C276.838,234.01,268.089,239.075,258.163,239.075z"/>
	</g>
</g>
<g>
	<g>
		<path d="M417.752,110.314l-22.071-22.072c-3.06-3.062-8.023-3.059-11.083-0.001l-22.073,22.071
			c-1.469,1.47-2.296,3.463-2.296,5.542c0,2.078,0.826,4.071,2.296,5.541l22.071,22.071c1.531,1.532,3.537,2.297,5.542,2.297
			c2.005,0,4.011-0.765,5.541-2.295l22.073-22.072c1.469-1.469,2.296-3.463,2.296-5.541S419.222,111.783,417.752,110.314z
			 M390.138,126.844l-10.989-10.989l10.99-10.989l10.989,10.989L390.138,126.844z"/>
	</g>
</g>
<g>
	<g>
		<path d="M454.331,184.892c-14.855-9.571-22.302-17.018-31.875-31.875c-1.443-2.239-3.925-3.592-6.588-3.592
			s-5.145,1.353-6.588,3.592c-9.571,14.856-17.019,22.303-31.875,31.874c-2.239,1.442-3.592,3.924-3.592,6.587
			s1.353,5.145,3.592,6.588c14.856,9.572,22.304,17.02,31.876,31.875c1.443,2.239,3.924,3.592,6.588,3.592
			c2.663,0,5.145-1.353,6.588-3.591c9.572-14.855,17.02-22.303,31.876-31.876c2.239-1.443,3.592-3.925,3.592-6.588
			C457.923,188.816,456.57,186.335,454.331,184.892z M415.868,211.913c-6.118-8.166-12.266-14.314-20.432-20.432
			c8.165-6.117,14.315-12.266,20.432-20.432c6.117,8.166,12.268,14.315,20.432,20.432
			C428.134,197.598,421.986,203.747,415.868,211.913z"/>
	</g>
</g>
<g>
	<g>
		<path d="M149.473,110.313l-22.073-22.071c-3.062-3.06-8.023-3.059-11.082,0.001l-22.071,22.071
			c-1.47,1.469-2.296,3.462-2.296,5.541c0,2.078,0.825,4.072,2.296,5.541l22.073,22.072c1.53,1.53,3.536,2.295,5.541,2.295
			c2.005,0,4.011-0.765,5.541-2.296l22.071-22.071c1.47-1.47,2.296-3.463,2.296-5.541S150.943,111.783,149.473,110.313z
			 M121.859,126.844l-10.99-10.989l10.989-10.989l10.99,10.989L121.859,126.844z"/>
	</g>
</g>
<g>
	<g>
		<path d="M134.592,184.892c-14.856-9.571-22.303-17.018-31.875-31.874c-1.443-2.239-3.924-3.592-6.588-3.592
			c-2.663,0-5.145,1.353-6.588,3.592c-9.572,14.856-17.02,22.303-31.875,31.875c-2.239,1.442-3.592,3.924-3.592,6.587
			s1.353,5.145,3.592,6.588c14.855,9.572,22.303,17.02,31.876,31.876c1.443,2.239,3.925,3.591,6.588,3.591s5.145-1.353,6.588-3.592
			c9.571-14.855,17.019-22.302,31.876-31.875c2.239-1.443,3.592-3.925,3.592-6.588C138.185,188.815,136.831,186.335,134.592,184.892
			z M96.129,211.913c-6.117-8.166-12.266-14.315-20.432-20.432c8.164-6.117,14.315-12.266,20.432-20.432
			c6.117,8.166,12.267,14.315,20.432,20.432C108.395,197.598,102.246,203.746,96.129,211.913z"/>
	</g>
</g>
</svg>